<?xml version="1.0" encoding="UTF-8" standalone="no"?>
<!-- Created with Inkscape (http://www.inkscape.org/) -->

<svg
   xmlns:dc="http://purl.org/dc/elements/1.1/"
   xmlns:cc="http://creativecommons.org/ns#"
   xmlns:rdf="http://www.w3.org/1999/02/22-rdf-syntax-ns#"
   xmlns:svg="http://www.w3.org/2000/svg"
   xmlns="http://www.w3.org/2000/svg"
   xmlns:sodipodi="http://sodipodi.sourceforge.net/DTD/sodipodi-0.dtd"
   xmlns:inkscape="http://www.inkscape.org/namespaces/inkscape"
   width="744.09448"
   height="252.36"
   id="svg3087"
   version="1.1"
   inkscape:version="0.48.4 r9939"
   sodipodi:docname="logo_kerned_white.svg">
  <defs
     id="defs3089" />
  <sodipodi:namedview
     id="base"
     pagecolor="#ffffff"
     bordercolor="#666666"
     borderopacity="1.0"
     inkscape:pageopacity="0.0"
     inkscape:pageshadow="2"
     inkscape:zoom="1.4"
     inkscape:cx="360.64846"
     inkscape:cy="125.30072"
     inkscape:document-units="px"
     inkscape:current-layer="layer1"
     showgrid="false"
     inkscape:window-width="1366"
     inkscape:window-height="706"
     inkscape:window-x="-8"
     inkscape:window-y="-8"
     inkscape:window-maximized="1" />
  <metadata
     id="metadata3092">
    <rdf:RDF>
      <cc:Work
         rdf:about="">
        <dc:format>image/svg+xml</dc:format>
        <dc:type
           rdf:resource="http://purl.org/dc/dcmitype/StillImage" />
        <dc:title></dc:title>
      </cc:Work>
    </rdf:RDF>
  </metadata>
  <g
     inkscape:label="Layer 1"
     inkscape:groupmode="layer"
     id="layer1"
     transform="translate(0,-800.00218)">
    <g
       style="font-size:15px"
       id="text32">
      <path
         d="m 250.58259,941.66427 16.92951,4.27601 c -3.54891,13.90433 -9.93383,24.50708 -19.15478,31.80827 -9.22115,7.30122 -20.49293,10.95182 -33.81538,10.95183 -13.78801,-10e-6 -25.00161,-2.80704 -33.64085,-8.42113 -8.63932,-5.61406 -15.21331,-13.74429 -19.72201,-24.3907 -4.50873,-10.64636 -6.76308,-22.07813 -6.76308,-34.29535 0,-13.32245 2.54524,-24.9433 7.63574,-34.86257 5.09046,-9.91907 12.33349,-17.45298 21.72911,-22.60176 9.39554,-5.14854 19.73649,-7.72287 31.02289,-7.723 12.79885,1.3e-4 23.56159,3.25804 32.28823,9.77373 8.72644,6.51594 14.80593,15.67881 18.23849,27.48864 l -16.66771,3.92695 c -2.96713,-9.30823 -7.27222,-16.08584 -12.91529,-20.33287 -5.64326,-4.2468 -12.74084,-6.37026 -21.29279,-6.37038 -9.83197,1.2e-4 -18.04946,2.35628 -24.6525,7.06851 -6.60313,4.71244 -11.24274,11.03918 -13.91885,18.98025 -2.67617,7.94124 -4.01424,16.12964 -4.01421,24.56524 -3e-5,10.87915 1.58529,20.37654 4.75597,28.49218 3.17061,8.11572 8.1011,14.18067 14.7915,18.19486 6.6903,4.01423 13.93333,6.02133 21.72911,6.02132 9.48278,10e-6 17.51119,-2.7343 24.08528,-8.20296 6.5739,-5.46861 11.02444,-13.58429 13.35162,-24.34707 z"
         style="font-size:178.71975708px;font-variant:normal;font-weight:500;font-stretch:normal;writing-mode:lr-tb;fill:#231f20;fill-opacity:1;fill-rule:nonzero;stroke:none;font-family:Helvetica 65 Medium;-inkscape-font-specification:HelveticaNeue-Medium"
         id="path2993" />
    </g>
    <g
       style="font-size:15px"
       id="text36">
      <path
         d="m 236.13617,935.49347 12.54243,1.55094 c -1.97808,7.32767 -5.64191,13.01447 -10.99148,17.06041 -5.3497,4.04594 -12.18284,6.06892 -20.49946,6.06892 -10.47453,0 -18.77995,-3.22552 -24.91629,-9.67656 -6.13636,-6.45102 -9.20453,-15.49819 -9.20452,-27.14155 -10e-6,-12.04788 3.10188,-21.3985 9.30567,-28.05189 6.20377,-6.65327 14.2507,-9.97993 24.14081,-9.98 9.57536,7e-5 17.39752,3.2593 23.46649,9.7777 6.06885,6.51852 9.10331,15.68933 9.10338,27.51243 -7e-5,0.71932 -0.0225,1.79823 -0.0674,3.23676 l -53.40649,0 c 0.44953,7.86714 2.6748,13.8911 6.67581,18.07189 4.00096,4.18082 8.99096,6.27123 14.97,6.27122 4.4505,10e-6 8.24919,-1.16882 11.39608,-3.50649 3.1468,-2.33764 5.64179,-6.0689 7.485,-11.19378 z m -39.85257,-19.62284 39.98744,0 c -0.53952,-6.02392 -2.06799,-10.54189 -4.58541,-13.55392 -3.86617,-4.67526 -8.87865,-7.01291 -15.03743,-7.01297 -5.57445,6e-5 -10.261,1.86569 -14.05966,5.59689 -3.79872,3.73131 -5.90036,8.72131 -6.30494,14.97 z"
         style="font-size:138.10162354px;font-variant:normal;font-weight:100;font-stretch:normal;writing-mode:lr-tb;fill:#231f20;fill-opacity:1;fill-rule:nonzero;stroke:none;font-family:Helvetica 25 UltraLight;-inkscape-font-specification:HelveticaNeue-UltraLight"
         id="path2996" />
    </g>
    <g
       style="font-size:15px"
       id="text40">
      <path
         d="m 308.45639,872.2285 5.77142,1.45772 c -1.20986,4.74011 -3.38653,8.35468 -6.53003,10.84372 -3.14357,2.48905 -6.98622,3.73357 -11.52796,3.73357 -4.70045,0 -8.52327,-0.95694 -11.46846,-2.87083 -2.94522,-1.91388 -5.18635,-4.68555 -6.7234,-8.315 -1.53707,-3.62944 -2.3056,-7.52663 -2.30559,-11.69159 -10e-6,-4.54174 0.86769,-8.50339 2.60308,-11.88495 1.73539,-3.3815 4.2046,-5.94987 7.40765,-7.70514 3.20302,-1.75518 6.72834,-2.63279 10.57597,-2.63284 4.36324,5e-5 8.03235,1.1107 11.00734,3.33196 2.97492,2.22134 5.04747,5.34504 6.21766,9.37111 l -5.68217,1.33873 c -1.01152,-3.17325 -2.47916,-5.4838 -4.40293,-6.93165 -1.92384,-1.44777 -4.34347,-2.17168 -7.2589,-2.17172 -3.3518,4e-5 -6.15322,0.80328 -8.40425,2.40972 -2.25107,1.60651 -3.83275,3.76335 -4.74506,6.47053 -0.91233,2.70724 -1.36849,5.49874 -1.36848,8.3745 -10e-6,3.7088 0.54044,6.94654 1.62135,9.71324 1.08089,2.76672 2.76174,4.83431 5.04255,6.20279 2.28079,1.36848 4.75,2.05272 7.40765,2.05272 3.23276,0 5.96972,-0.93215 8.21088,-2.79646 2.2411,-1.8643 3.75833,-4.63101 4.55168,-8.30013 z"
         style="font-size:60.92712402px;font-variant:normal;font-weight:300;font-stretch:normal;writing-mode:lr-tb;fill:#231f20;fill-opacity:1;fill-rule:nonzero;stroke:none;font-family:Helvetica 45 Light;-inkscape-font-specification:HelveticaNeue-Light"
         id="path2999" />
      <path
         d="m 318.69025,871.72275 c -10e-6,-5.85073 1.6263,-10.18424 4.87893,-13.00056 2.71711,-2.34027 6.02923,-3.51042 9.93635,-3.51045 4.34342,3e-5 7.89353,1.42305 10.65035,4.26906 2.75676,2.84607 4.13516,6.77797 4.13519,11.79571 -3e-5,4.06579 -0.6099,7.26386 -1.8296,9.59424 -1.21976,2.33038 -2.99482,4.14015 -5.32517,5.42929 -2.33041,1.28915 -4.87399,1.93372 -7.63077,1.93373 -4.42278,-1e-5 -7.99768,-1.41807 -10.72472,-4.25419 -2.72705,-2.83612 -4.09057,-6.92173 -4.09056,-12.25683 z m 5.50367,0 c -10e-6,4.04596 0.88256,7.07545 2.64771,9.0885 1.76513,2.01306 3.98643,3.01958 6.6639,3.01958 2.65761,0 4.86899,-1.01148 6.63416,-3.03446 1.76511,-2.02296 2.64768,-5.107 2.64771,-9.25211 -3e-5,-3.9071 -0.88756,-6.86718 -2.66259,-8.88025 -1.77508,-2.01303 -3.9815,-3.01956 -6.61928,-3.01958 -2.67747,2e-5 -4.89877,1.00159 -6.6639,3.0047 -1.76515,2.00316 -2.64772,5.0277 -2.64771,9.07362 z"
         style="font-size:60.92712402px;font-variant:normal;font-weight:300;font-stretch:normal;writing-mode:lr-tb;fill:#231f20;fill-opacity:1;fill-rule:nonzero;stroke:none;font-family:Helvetica 45 Light;-inkscape-font-specification:HelveticaNeue-Light"
         id="path3001" />
      <path
         d="m 375.21443,883.62258 c -1.98332,1.68581 -3.89225,2.87579 -5.72679,3.56995 -1.83457,0.69416 -3.803,1.04123 -5.90529,1.04124 -3.47079,-1e-5 -6.13834,-0.84787 -8.00263,-2.54359 -1.86431,-1.69573 -2.79647,-3.86248 -2.79646,-6.50028 -10e-6,-1.54697 0.35203,-2.96008 1.05611,-4.23932 0.70406,-1.27922 1.6263,-2.30558 2.76671,-3.07908 1.14039,-0.77347 2.42458,-1.35855 3.85257,-1.75522 1.05114,-0.27765 2.63778,-0.5454 4.75993,-0.80324 4.32358,-0.51564 7.50678,-1.13047 9.54961,-1.84448 0.0198,-0.7338 0.0297,-1.19987 0.0297,-1.39823 -3e-5,-2.18161 -0.50577,-3.71867 -1.51723,-4.61118 -1.3685,-1.20979 -3.40139,-1.8147 -6.09866,-1.81472 -2.51881,2e-5 -4.37816,0.44131 -5.57805,1.32385 -1.19991,0.8826 -2.08743,2.44445 -2.66258,4.68556 l -5.23593,-0.71399 c 0.47599,-2.24111 1.2594,-4.05087 2.35022,-5.4293 1.09081,-1.37836 2.66754,-2.43943 4.73018,-3.1832 2.06263,-0.74371 4.45251,-1.11558 7.16965,-1.11561 2.69727,3e-5 4.88882,0.31736 6.57465,0.95199 1.68579,0.63468 2.92535,1.43296 3.7187,2.39484 0.79329,0.96193 1.34862,2.1767 1.66598,3.64432 0.17846,0.91234 0.26771,2.55849 0.26774,4.93843 l 0,7.1399 c -3e-5,4.9781 0.11401,8.12659 0.34212,9.44548 0.22805,1.31891 0.67925,2.58326 1.35361,3.79308 l -5.59292,0 c -0.55535,-1.11065 -0.91235,-2.40972 -1.07099,-3.8972 z m -0.44624,-11.95933 c -1.94366,0.79334 -4.85912,1.46766 -8.74637,2.02297 -2.20149,0.31735 -3.75838,0.67434 -4.67069,1.07099 -0.91233,0.39667 -1.6164,0.97679 -2.11222,1.74035 -0.49583,0.76358 -0.74374,1.61144 -0.74374,2.54359 0,1.42798 0.54045,2.61797 1.62136,3.56995 1.08089,0.95199 2.66257,1.42798 4.74505,1.42798 2.06262,0 3.89718,-0.4512 5.50367,-1.35361 1.60646,-0.9024 2.78652,-2.137 3.5402,-3.70382 0.57514,-1.20981 0.86272,-2.99478 0.86274,-5.35492 z"
         style="font-size:60.92712402px;font-variant:normal;font-weight:300;font-stretch:normal;writing-mode:lr-tb;fill:#231f20;fill-opacity:1;fill-rule:nonzero;stroke:none;font-family:Helvetica 45 Light;-inkscape-font-specification:HelveticaNeue-Light"
         id="path3003" />
      <path
         d="m 386.37052,878.08916 5.29543,-0.83299 c 0.29748,2.12215 1.12551,3.74846 2.48409,4.87893 1.35855,1.13049 3.25756,1.69573 5.69704,1.69573 2.45928,0 4.28392,-0.50078 5.47392,-1.50235 1.18996,-1.00157 1.78495,-2.17667 1.78497,-3.52533 -2e-5,-1.20981 -0.52559,-2.16179 -1.57672,-2.85596 -0.73385,-0.47598 -2.55848,-1.08089 -5.47392,-1.81472 -3.92696,-0.99164 -6.64904,-1.84942 -8.16626,-2.57334 -1.51724,-0.72389 -2.66755,-1.72546 -3.45095,-3.00471 -0.78341,-1.27921 -1.17511,-2.69231 -1.17511,-4.23931 0,-1.40812 0.32228,-2.71214 0.96686,-3.91207 0.64457,-1.19987 1.52218,-2.19648 2.63284,-2.98983 0.83298,-0.6148 1.96842,-1.13541 3.40632,-1.56185 1.43789,-0.42638 2.97991,-0.63959 4.62606,-0.63962 2.47912,3e-5 4.65579,0.35703 6.53003,1.07098 1.8742,0.71402 3.25756,1.68088 4.15007,2.90059 0.89246,1.21976 1.50728,2.85102 1.84447,4.8938 l -5.23592,0.71399 c -0.23802,-1.62628 -0.92722,-2.8956 -2.0676,-3.80794 -1.14042,-0.9123 -2.75185,-1.36846 -4.8343,-1.36848 -2.45931,2e-5 -4.21454,0.4066 -5.26568,1.21973 -1.05116,0.81318 -1.57673,1.76517 -1.57672,2.85596 -10e-6,0.69418 0.21815,1.31892 0.65449,1.87422 0.43631,0.57518 1.12055,1.05117 2.05272,1.42798 0.53548,0.19835 2.1122,0.65451 4.73018,1.36848 3.78809,1.0115 6.43084,1.83953 7.92826,2.48409 1.49737,0.64459 2.67248,1.5817 3.52532,2.81133 0.8528,1.22967 1.27921,2.75681 1.27924,4.58144 -3e-5,1.78498 -0.52065,3.46583 -1.56186,5.04255 -1.04126,1.57673 -2.54361,2.79646 -4.50706,3.6592 -1.96349,0.86274 -4.18479,1.2941 -6.6639,1.29411 -4.10545,-1e-5 -7.23411,-0.85283 -9.38599,-2.55847 -2.15189,-1.70564 -3.52533,-4.23435 -4.12032,-7.58614 z"
         style="font-size:60.92712402px;font-variant:normal;font-weight:300;font-stretch:normal;writing-mode:lr-tb;fill:#231f20;fill-opacity:1;fill-rule:nonzero;stroke:none;font-family:Helvetica 45 Light;-inkscape-font-specification:HelveticaNeue-Light"
         id="path3005" />
      <path
         d="m 430.66764,882.73009 0.77349,4.73019 c -1.50732,0.31732 -2.85597,0.47599 -4.04594,0.47599 -1.94365,0 -3.45096,-0.30741 -4.52193,-0.92224 -1.071,-0.61482 -1.82465,-1.42302 -2.26097,-2.42459 -0.43633,-1.00156 -0.6545,-3.10882 -0.65449,-6.32178 l 0,-18.17699 -3.92695,0 0,-4.16494 3.92695,0 0,-7.82414 5.32517,-3.21295 0,11.03709 5.38467,0 0,4.16494 -5.38467,0 0,18.47448 c -10e-6,1.52716 0.0942,2.50889 0.28262,2.94521 0.18841,0.43633 0.49582,0.78341 0.92224,1.04124 0.4264,0.25783 1.03626,0.38675 1.8296,0.38674 0.59497,10e-6 1.37838,-0.0694 2.35021,-0.20825 z"
         style="font-size:60.92712402px;font-variant:normal;font-weight:300;font-stretch:normal;writing-mode:lr-tb;fill:#231f20;fill-opacity:1;fill-rule:nonzero;stroke:none;font-family:Helvetica 45 Light;-inkscape-font-specification:HelveticaNeue-Light"
         id="path3007" />
      <path
         d="m 456.49027,883.62258 c -1.98333,1.68581 -3.89226,2.87579 -5.7268,3.56995 -1.83457,0.69416 -3.803,1.04123 -5.90529,1.04124 -3.47079,-1e-5 -6.13833,-0.84787 -8.00263,-2.54359 -1.86431,-1.69573 -2.79646,-3.86248 -2.79646,-6.50028 0,-1.54697 0.35203,-2.96008 1.05611,-4.23932 0.70407,-1.27922 1.6263,-2.30558 2.76671,-3.07908 1.14039,-0.77347 2.42458,-1.35855 3.85257,-1.75522 1.05114,-0.27765 2.63778,-0.5454 4.75993,-0.80324 4.32359,-0.51564 7.50679,-1.13047 9.54961,-1.84448 0.0198,-0.7338 0.0297,-1.19987 0.0298,-1.39823 -2e-5,-2.18161 -0.50576,-3.71867 -1.51723,-4.61118 -1.3685,-1.20979 -3.40138,-1.8147 -6.09866,-1.81472 -2.51881,2e-5 -4.37816,0.44131 -5.57804,1.32385 -1.19991,0.8826 -2.08744,2.44445 -2.66259,4.68556 l -5.23592,-0.71399 c 0.47598,-2.24111 1.25939,-4.05087 2.35021,-5.4293 1.09081,-1.37836 2.66754,-2.43943 4.73018,-3.1832 2.06263,-0.74371 4.45251,-1.11558 7.16965,-1.11561 2.69727,3e-5 4.88882,0.31736 6.57466,0.95199 1.68578,0.63468 2.92534,1.43296 3.71869,2.39484 0.7933,0.96193 1.34862,2.1767 1.66598,3.64432 0.17847,0.91234 0.26772,2.55849 0.26774,4.93843 l 0,7.1399 c -2e-5,4.9781 0.11401,8.12659 0.34212,9.44548 0.22805,1.31891 0.67926,2.58326 1.35361,3.79308 l -5.59292,0 c -0.55535,-1.11065 -0.91234,-2.40972 -1.07098,-3.8972 z m -0.44625,-11.95933 c -1.94366,0.79334 -4.85911,1.46766 -8.74637,2.02297 -2.20148,0.31735 -3.75838,0.67434 -4.67068,1.07099 -0.91233,0.39667 -1.61641,0.97679 -2.11222,1.74035 -0.49584,0.76358 -0.74375,1.61144 -0.74374,2.54359 -10e-6,1.42798 0.54044,2.61797 1.62135,3.56995 1.08089,0.95199 2.66257,1.42798 4.74505,1.42798 2.06263,0 3.89718,-0.4512 5.50368,-1.35361 1.60645,-0.9024 2.78652,-2.137 3.54019,-3.70382 0.57514,-1.20981 0.86272,-2.99478 0.86274,-5.35492 z"
         style="font-size:60.92712402px;font-variant:normal;font-weight:300;font-stretch:normal;writing-mode:lr-tb;fill:#231f20;fill-opacity:1;fill-rule:nonzero;stroke:none;font-family:Helvetica 45 Light;-inkscape-font-specification:HelveticaNeue-Light"
         id="path3009" />
      <path
         d="m 469.66932,887.51978 0,-43.61288 5.35492,0 0,43.61288 z"
         style="font-size:60.92712402px;font-variant:normal;font-weight:300;font-stretch:normal;writing-mode:lr-tb;fill:#231f20;fill-opacity:1;fill-rule:nonzero;stroke:none;font-family:Helvetica 45 Light;-inkscape-font-specification:HelveticaNeue-Light"
         id="path3011" />
    </g>
    <g
       style="font-size:15px"
       id="text44">
      <path
         d="m 281.19779,941.9541 0,-40.70539 29.43227,0 0,4.80357 -24.04561,0 0,12.46707 22.51846,0 0,4.7758 -22.51846,0 0,13.85538 24.98966,0 0,4.80357 z"
         style="font-size:56.8653717px;font-variant:normal;font-weight:100;font-stretch:normal;writing-mode:lr-tb;fill:#231f20;fill-opacity:1;fill-rule:nonzero;stroke:none;font-family:Helvetica 25 UltraLight;-inkscape-font-specification:HelveticaNeue-UltraLight"
         id="path3014" />
      <path
         d="m 318.43239,941.9541 0,-29.4878 4.49814,0 0,4.19271 c 2.16576,-3.23938 5.29409,-4.85907 9.385,-4.8591 1.77703,3e-5 3.41061,0.31934 4.90076,0.95793 1.4901,0.63866 2.60537,1.47627 3.34583,2.51285 0.74041,1.03664 1.25872,2.26761 1.55492,3.69292 0.18508,0.92556 0.27763,2.54526 0.27766,4.8591 l 0,18.13139 -4.99793,0 0,-17.93702 c -3e-5,-2.03618 -0.19439,-3.5587 -0.5831,-4.56756 -0.38875,-1.00882 -1.07827,-1.81404 -2.06858,-2.41567 -0.99036,-0.60158 -2.15191,-0.90238 -3.48467,-0.9024 -2.12877,2e-5 -3.96597,0.67567 -5.51161,2.02694 -1.54567,1.35131 -2.3185,3.91506 -2.31849,7.69126 l 0,16.10445 z"
         style="font-size:56.8653717px;font-variant:normal;font-weight:100;font-stretch:normal;writing-mode:lr-tb;fill:#231f20;fill-opacity:1;fill-rule:nonzero;stroke:none;font-family:Helvetica 25 UltraLight;-inkscape-font-specification:HelveticaNeue-UltraLight"
         id="path3016" />
      <path
         d="m 358.27702,941.9541 -11.21759,-29.4878 5.2756,0 6.33071,17.65936 c 0.68489,1.90663 1.31426,3.88729 1.88811,5.94199 0.44425,-1.55491 1.06436,-3.4245 1.86034,-5.60879 l 6.55285,-17.99256 5.13676,0 -11.16205,29.4878 z"
         style="font-size:56.8653717px;font-variant:normal;font-weight:100;font-stretch:normal;writing-mode:lr-tb;fill:#231f20;fill-opacity:1;fill-rule:nonzero;stroke:none;font-family:Helvetica 25 UltraLight;-inkscape-font-specification:HelveticaNeue-UltraLight"
         id="path3018" />
      <path
         d="m 378.54642,906.99634 0,-5.74763 4.99793,0 0,5.74763 z m 0,34.95776 0,-29.4878 4.99793,0 0,29.4878 z"
         style="font-size:56.8653717px;font-variant:normal;font-weight:100;font-stretch:normal;writing-mode:lr-tb;fill:#231f20;fill-opacity:1;fill-rule:nonzero;stroke:none;font-family:Helvetica 25 UltraLight;-inkscape-font-specification:HelveticaNeue-UltraLight"
         id="path3020" />
      <path
         d="m 391.12454,941.9541 0,-29.4878 4.49814,0 0,4.47037 c 1.14767,-2.0917 2.20741,-3.47076 3.17924,-4.13718 0.97181,-0.66636 2.04081,-0.99955 3.20701,-0.99958 1.68447,3e-5 3.39673,0.53684 5.13676,1.61044 l -1.72151,4.63697 c -1.22173,-0.7219 -2.44345,-1.08286 -3.66515,-1.08288 -1.09215,2e-5 -2.07323,0.32859 -2.94322,0.9857 -0.87002,0.65716 -1.49014,1.56882 -1.86035,2.73498 -0.55533,1.77706 -0.83299,3.7207 -0.83298,5.83092 l 0,15.43806 z"
         style="font-size:56.8653717px;font-variant:normal;font-weight:100;font-stretch:normal;writing-mode:lr-tb;fill:#231f20;fill-opacity:1;fill-rule:nonzero;stroke:none;font-family:Helvetica 25 UltraLight;-inkscape-font-specification:HelveticaNeue-UltraLight"
         id="path3022" />
      <path
         d="m 408.31188,927.2102 c -10e-6,-5.46069 1.51788,-9.5053 4.55367,-12.13387 2.53598,-2.18425 5.62729,-3.27639 9.27394,-3.27642 4.05386,3e-5 7.3673,1.32818 9.94033,3.98446 2.57299,2.65633 3.85949,6.32611 3.85952,11.00933 -3e-5,3.79474 -0.56924,6.77962 -1.70763,8.95463 -1.13844,2.17504 -2.79516,3.86415 -4.97017,5.06735 -2.17504,1.20321 -4.54906,1.80481 -7.12205,1.80481 -4.12793,0 -7.46451,-1.32352 -10.00975,-3.97058 -2.54525,-2.64705 -3.81787,-6.46028 -3.81786,-11.43971 z m 5.13676,0 c -1e-5,3.77623 0.82373,6.60376 2.4712,8.4826 1.64746,1.87886 3.72067,2.81828 6.21965,2.81828 2.48044,0 4.5444,-0.94405 6.19188,-2.83216 1.64745,-1.8881 2.47118,-4.76654 2.4712,-8.63532 -2e-5,-3.64662 -0.82838,-6.40936 -2.48508,-8.28824 -1.65674,-1.87883 -3.71607,-2.81825 -6.178,-2.81828 -2.49898,3e-5 -4.57219,0.93483 -6.21965,2.8044 -1.64747,1.86962 -2.47121,4.69252 -2.4712,8.46872 z"
         style="font-size:56.8653717px;font-variant:normal;font-weight:100;font-stretch:normal;writing-mode:lr-tb;fill:#231f20;fill-opacity:1;fill-rule:nonzero;stroke:none;font-family:Helvetica 25 UltraLight;-inkscape-font-specification:HelveticaNeue-UltraLight"
         id="path3024" />
      <path
         d="m 441.8258,941.9541 0,-29.4878 4.49814,0 0,4.19271 c 2.16576,-3.23938 5.29409,-4.85907 9.385,-4.8591 1.77703,3e-5 3.41061,0.31934 4.90076,0.95793 1.4901,0.63866 2.60537,1.47627 3.34583,2.51285 0.74041,1.03664 1.25872,2.26761 1.55492,3.69292 0.18508,0.92556 0.27763,2.54526 0.27766,4.8591 l 0,18.13139 -4.99793,0 0,-17.93702 c -3e-5,-2.03618 -0.19439,-3.5587 -0.5831,-4.56756 -0.38875,-1.00882 -1.07828,-1.81404 -2.06859,-2.41567 -0.99035,-0.60158 -2.1519,-0.90238 -3.48467,-0.9024 -2.12876,2e-5 -3.96596,0.67567 -5.5116,2.02694 -1.54567,1.35131 -2.3185,3.91506 -2.31849,7.69126 l 0,16.10445 z"
         style="font-size:56.8653717px;font-variant:normal;font-weight:100;font-stretch:normal;writing-mode:lr-tb;fill:#231f20;fill-opacity:1;fill-rule:nonzero;stroke:none;font-family:Helvetica 25 UltraLight;-inkscape-font-specification:HelveticaNeue-UltraLight"
         id="path3026" />
      <path
         d="m 473.47938,941.9541 0,-29.4878 4.47037,0 0,4.13717 c 0.92553,-1.44382 2.1565,-2.60537 3.69292,-3.48467 1.53639,-0.87923 3.28566,-1.31886 5.24783,-1.31889 2.18426,3e-5 3.97518,0.45354 5.37277,1.36054 1.39755,0.90706 2.38325,2.17506 2.95712,3.80399 2.33234,-3.443 5.36811,-5.1645 9.10734,-5.16453 2.92468,3e-5 5.17375,0.80988 6.74721,2.42955 1.57338,1.61972 2.36009,4.11406 2.36013,7.48301 l 0,20.24163 -4.97016,0 0,-18.57565 c -4e-5,-1.99915 -0.16201,-3.43837 -0.48591,-4.31766 -0.32398,-0.87924 -0.9117,-1.58728 -1.76316,-2.12412 -0.85154,-0.53679 -1.85112,-0.8052 -2.99876,-0.80522 -2.07325,2e-5 -3.79476,0.68955 -5.16453,2.06859 -1.36983,1.37908 -2.05473,3.5865 -2.05471,6.62226 l 0,17.1318 -4.99793,0 0,-19.15874 c -2e-5,-2.22128 -0.40726,-3.88726 -1.22172,-4.99793 -0.8145,-1.11063 -2.14728,-1.66596 -3.99835,-1.66598 -1.40684,2e-5 -2.70722,0.37024 -3.90116,1.11065 -1.19396,0.74046 -2.05934,1.82334 -2.59615,3.24866 -0.53682,1.42535 -0.80523,3.48006 -0.80522,6.16411 l 0,15.29923 z"
         style="font-size:56.8653717px;font-variant:normal;font-weight:100;font-stretch:normal;writing-mode:lr-tb;fill:#231f20;fill-opacity:1;fill-rule:nonzero;stroke:none;font-family:Helvetica 25 UltraLight;-inkscape-font-specification:HelveticaNeue-UltraLight"
         id="path3028" />
      <path
         d="m 541.09031,932.45803 5.16453,0.63862 c -0.81451,3.01728 -2.32314,5.3589 -4.52591,7.02488 -2.20281,1.66597 -5.01646,2.49896 -8.44095,2.49896 -4.31304,0 -7.73292,-1.32815 -10.25965,-3.98446 -2.52673,-2.6563 -3.7901,-6.38161 -3.7901,-11.17593 0,-4.9609 1.27725,-8.81115 3.83175,-11.55078 2.55449,-2.73958 5.86793,-4.10938 9.94034,-4.10941 3.94279,3e-5 7.16368,1.34206 9.66267,4.02611 2.49894,2.6841 3.74842,6.46031 3.74845,11.32865 -3e-5,0.29618 -0.009,0.74045 -0.0278,1.33278 l -21.99091,0 c 0.18511,3.23941 1.10139,5.71986 2.74887,7.44137 1.64745,1.72151 3.70216,2.58226 6.16412,2.58226 1.83255,0 3.39672,-0.48128 4.6925,-1.44385 1.29574,-0.96256 2.32309,-2.49896 3.08206,-4.6092 z m -16.40988,-8.07999 16.46541,0 c -0.22215,-2.48044 -0.85152,-4.34078 -1.88811,-5.58103 -1.59195,-1.9251 -3.65591,-2.88767 -6.19188,-2.88769 -2.29536,2e-5 -4.22512,0.76822 -5.78927,2.3046 -1.56418,1.53642 -2.42956,3.59113 -2.59615,6.16412 z"
         style="font-size:56.8653717px;font-variant:normal;font-weight:100;font-stretch:normal;writing-mode:lr-tb;fill:#231f20;fill-opacity:1;fill-rule:nonzero;stroke:none;font-family:Helvetica 25 UltraLight;-inkscape-font-specification:HelveticaNeue-UltraLight"
         id="path3030" />
      <path
         d="m 552.55778,941.9541 0,-29.4878 4.49814,0 0,4.19271 c 2.16576,-3.23938 5.29409,-4.85907 9.385,-4.8591 1.77703,3e-5 3.41061,0.31934 4.90075,0.95793 1.4901,0.63866 2.60538,1.47627 3.34584,2.51285 0.74041,1.03664 1.25871,2.26761 1.55492,3.69292 0.18508,0.92556 0.27763,2.54526 0.27766,4.8591 l 0,18.13139 -4.99793,0 0,-17.93702 c -3e-5,-2.03618 -0.19439,-3.5587 -0.5831,-4.56756 -0.38875,-1.00882 -1.07828,-1.81404 -2.06859,-2.41567 -0.99035,-0.60158 -2.1519,-0.90238 -3.48467,-0.9024 -2.12876,2e-5 -3.96596,0.67567 -5.51161,2.02694 -1.54566,1.35131 -2.31849,3.91506 -2.31848,7.69126 l 0,16.10445 z"
         style="font-size:56.8653717px;font-variant:normal;font-weight:100;font-stretch:normal;writing-mode:lr-tb;fill:#231f20;fill-opacity:1;fill-rule:nonzero;stroke:none;font-family:Helvetica 25 UltraLight;-inkscape-font-specification:HelveticaNeue-UltraLight"
         id="path3032" />
      <path
         d="m 595.12352,937.48373 0.72193,4.41484 c -1.40684,0.29617 -2.66558,0.44426 -3.77622,0.44426 -1.81407,0 -3.2209,-0.28692 -4.22047,-0.86076 -0.9996,-0.57383 -1.70301,-1.32815 -2.11024,-2.26295 -0.40725,-0.93479 -0.61087,-2.90157 -0.61086,-5.90034 l 0,-16.9652 -3.66515,0 0,-3.88728 3.66515,0 0,-7.30254 4.97017,-2.99876 0,10.3013 5.02569,0 0,3.88728 -5.02569,0 0,17.24287 c -1e-5,1.42534 0.0879,2.34163 0.26378,2.74886 0.17584,0.40724 0.46276,0.73118 0.86075,0.97182 0.39797,0.24065 0.96718,0.36097 1.70763,0.36096 0.55531,10e-6 1.28649,-0.0648 2.19353,-0.19436 z"
         style="font-size:56.8653717px;font-variant:normal;font-weight:100;font-stretch:normal;writing-mode:lr-tb;fill:#231f20;fill-opacity:1;fill-rule:nonzero;stroke:none;font-family:Helvetica 25 UltraLight;-inkscape-font-specification:HelveticaNeue-UltraLight"
         id="path3034" />
      <path
         d="m 619.22465,938.31672 c -1.8511,1.57342 -3.63277,2.68407 -5.34501,3.33195 -1.71227,0.64788 -3.54947,0.97182 -5.51161,0.97182 -3.23941,0 -5.72912,-0.79134 -7.46913,-2.37402 -1.74003,-1.58267 -2.61003,-3.60498 -2.61003,-6.06693 0,-1.44384 0.32856,-2.76274 0.9857,-3.9567 0.65713,-1.19394 1.51789,-2.15187 2.58227,-2.87381 1.06436,-0.72191 2.26294,-1.26798 3.59573,-1.63821 0.98107,-0.25914 2.46193,-0.50903 4.44261,-0.74969 4.03535,-0.48127 7.00634,-1.0551 8.91298,-1.72151 0.0185,-0.68488 0.0277,-1.11989 0.0278,-1.30502 -3e-5,-2.03617 -0.47205,-3.47076 -1.41609,-4.30377 -1.27727,-1.12914 -3.17463,-1.69372 -5.69209,-1.69375 -2.35089,3e-5 -4.08628,0.4119 -5.20618,1.2356 -1.11991,0.82376 -1.94827,2.28149 -2.48508,4.37319 l -4.88687,-0.66639 c 0.44426,-2.0917 1.17544,-3.78082 2.19354,-5.06734 1.01809,-1.28648 2.4897,-2.27681 4.41484,-2.971 1.92512,-0.69413 4.15568,-1.0412 6.69168,-1.04123 2.51746,3e-5 4.5629,0.2962 6.13635,0.88852 1.5734,0.59237 2.73033,1.33743 3.47079,2.23518 0.7404,0.89781 1.25871,2.0316 1.55491,3.40137 0.16657,0.85153 0.24987,2.38793 0.24989,4.60921 l 0,6.66391 c -2e-5,4.64623 0.10641,7.58483 0.31932,8.8158 0.21284,1.23097 0.63397,2.41104 1.26336,3.5402 l -5.22006,0 c -0.51833,-1.03661 -0.85152,-2.24907 -0.99959,-3.63738 z m -0.41649,-11.16205 c -1.81409,0.74045 -4.53518,1.36981 -8.16329,1.8881 -2.05472,0.29619 -3.50782,0.62939 -4.35931,0.99959 -0.85151,0.37023 -1.50864,0.91167 -1.97141,1.62433 -0.46278,0.71268 -0.69416,1.50402 -0.69415,2.37402 -10e-6,1.33279 0.50441,2.44344 1.51326,3.33195 1.00883,0.88853 2.48507,1.33279 4.42872,1.33279 1.92512,0 3.63737,-0.42112 5.13677,-1.26337 1.49936,-0.84224 2.60075,-1.99454 3.30419,-3.45691 0.53679,-1.12915 0.8052,-2.79512 0.80522,-4.99793 z"
         style="font-size:56.8653717px;font-variant:normal;font-weight:100;font-stretch:normal;writing-mode:lr-tb;fill:#231f20;fill-opacity:1;fill-rule:nonzero;stroke:none;font-family:Helvetica 25 UltraLight;-inkscape-font-specification:HelveticaNeue-UltraLight"
         id="path3036" />
      <path
         d="m 631.52514,941.9541 0,-40.70539 4.99793,0 0,40.70539 z"
         style="font-size:56.8653717px;font-variant:normal;font-weight:100;font-stretch:normal;writing-mode:lr-tb;fill:#231f20;fill-opacity:1;fill-rule:nonzero;stroke:none;font-family:Helvetica 25 UltraLight;-inkscape-font-specification:HelveticaNeue-UltraLight"
         id="path3038" />
    </g>
    <g
       style="font-size:15px"
       id="text48">
      <path
         d="m 308.45639,981.80186 5.77142,1.45773 c -1.20986,4.74011 -3.38653,8.35468 -6.53003,10.84372 -3.14357,2.48905 -6.98622,3.73357 -11.52796,3.73357 -4.70045,0 -8.52327,-0.95695 -11.46846,-2.87083 -2.94522,-1.91389 -5.18635,-4.68556 -6.7234,-8.31501 -1.53707,-3.62943 -2.3056,-7.52662 -2.30559,-11.69158 -10e-6,-4.54174 0.86769,-8.50339 2.60308,-11.88496 1.73539,-3.38149 4.2046,-5.94987 7.40765,-7.70514 3.20302,-1.75518 6.72834,-2.63279 10.57597,-2.63283 4.36324,4e-5 8.03235,1.11069 11.00734,3.33195 2.97492,2.22134 5.04747,5.34504 6.21766,9.37111 l -5.68217,1.33874 c -1.01152,-3.17326 -2.47916,-5.48381 -4.40293,-6.93165 -1.92384,-1.44778 -4.34347,-2.17168 -7.2589,-2.17172 -3.3518,4e-5 -6.15322,0.80327 -8.40425,2.40971 -2.25107,1.60651 -3.83275,3.76336 -4.74506,6.47053 -0.91233,2.70724 -1.36849,5.49874 -1.36848,8.37451 -10e-6,3.7088 0.54044,6.94654 1.62135,9.71323 1.08089,2.76672 2.76174,4.83432 5.04255,6.20279 2.28079,1.36848 4.75,2.05272 7.40765,2.05272 3.23276,0 5.96972,-0.93215 8.21088,-2.79646 2.2411,-1.8643 3.75833,-4.631 4.55168,-8.30013 z"
         style="font-size:60.92712402px;font-variant:normal;font-weight:300;font-stretch:normal;writing-mode:lr-tb;fill:#231f20;fill-opacity:1;fill-rule:nonzero;stroke:none;font-family:Helvetica 45 Light;-inkscape-font-specification:HelveticaNeue-Light"
         id="path3041" />
      <path
         d="m 318.69025,981.29612 c -10e-6,-5.85073 1.6263,-10.18425 4.87893,-13.00057 2.71711,-2.34026 6.02923,-3.51041 9.93635,-3.51045 4.34342,4e-5 7.89353,1.42306 10.65035,4.26907 2.75676,2.84607 4.13516,6.77796 4.13519,11.7957 -3e-5,4.06579 -0.6099,7.26387 -1.8296,9.59424 -1.21976,2.33039 -2.99482,4.14015 -5.32517,5.4293 -2.33041,1.28915 -4.87399,1.93372 -7.63077,1.93372 -4.42278,0 -7.99768,-1.41806 -10.72472,-4.25419 -2.72705,-2.83612 -4.09057,-6.92172 -4.09056,-12.25682 z m 5.50367,0 c -10e-6,4.04595 0.88256,7.07545 2.64771,9.08849 1.76513,2.01306 3.98643,3.01959 6.6639,3.01958 2.65761,10e-6 4.86899,-1.01148 6.63416,-3.03445 1.76511,-2.02297 2.64768,-5.107 2.64771,-9.25212 -3e-5,-3.90709 -0.88756,-6.86717 -2.66259,-8.88025 -1.77508,-2.01303 -3.9815,-3.01955 -6.61928,-3.01958 -2.67747,3e-5 -4.89877,1.0016 -6.6639,3.00471 -1.76515,2.00316 -2.64772,5.02769 -2.64771,9.07362 z"
         style="font-size:60.92712402px;font-variant:normal;font-weight:300;font-stretch:normal;writing-mode:lr-tb;fill:#231f20;fill-opacity:1;fill-rule:nonzero;stroke:none;font-family:Helvetica 45 Light;-inkscape-font-specification:HelveticaNeue-Light"
         id="path3043" />
      <path
         d="m 354.53848,997.09314 0,-31.59405 4.81943,0 0,4.78969 c 1.22964,-2.24111 2.36508,-3.71867 3.40633,-4.43269 1.04122,-0.71396 2.18658,-1.07095 3.43607,-1.07099 1.80479,4e-5 3.63935,0.57519 5.50367,1.72548 l -1.84447,4.96818 c -1.309,-0.77346 -2.61798,-1.16021 -3.92694,-1.16024 -1.17017,3e-5 -2.22132,0.35207 -3.15346,1.05611 -0.93216,0.7041 -1.59657,1.68088 -1.99322,2.93034 -0.595,1.90399 -0.8925,3.98646 -0.89249,6.24741 l 0,16.54076 z"
         style="font-size:60.92712402px;font-variant:normal;font-weight:300;font-stretch:normal;writing-mode:lr-tb;fill:#231f20;fill-opacity:1;fill-rule:nonzero;stroke:none;font-family:Helvetica 45 Light;-inkscape-font-specification:HelveticaNeue-Light"
         id="path3045" />
      <path
         d="m 374.94669,1009.2012 0,-43.70211 4.87893,0 0,4.10544 c 1.15031,-1.60644 2.44937,-2.8113 3.89719,-3.61457 1.4478,-0.8032 3.20302,-1.20482 5.26568,-1.20486 2.69727,4e-5 5.07723,0.69419 7.13989,2.08247 2.06261,1.38835 3.61951,3.34686 4.67069,5.87554 1.05112,2.52874 1.57669,5.30041 1.57672,8.31501 -3e-5,3.2328 -0.58014,6.1433 -1.74035,8.7315 -1.16026,2.58822 -2.84607,4.57152 -5.05742,5.94991 -2.21141,1.3784 -4.53683,2.0676 -6.97628,2.0676 -1.78499,0 -3.38651,-0.37683 -4.80455,-1.13048 -1.41808,-0.75366 -2.58327,-1.70564 -3.49558,-2.85596 l 0,15.38051 z m 4.84918,-27.72659 c -10e-6,4.06579 0.82306,7.07049 2.46921,9.01412 1.64613,1.94365 3.63935,2.91547 5.97967,2.91546 2.37994,10e-6 4.41779,-1.00652 6.11353,-3.01958 1.6957,-2.01304 2.54357,-5.13179 2.54359,-9.35624 -2e-5,-4.02609 -0.82805,-7.04071 -2.48409,-9.04387 -1.65608,-2.00311 -3.63442,-3.00468 -5.93504,-3.00471 -2.28081,3e-5 -4.29882,1.06606 -6.05403,3.19808 -1.75524,2.13208 -2.63285,5.23099 -2.63284,9.29674 z"
         style="font-size:60.92712402px;font-variant:normal;font-weight:300;font-stretch:normal;writing-mode:lr-tb;fill:#231f20;fill-opacity:1;fill-rule:nonzero;stroke:none;font-family:Helvetica 45 Light;-inkscape-font-specification:HelveticaNeue-Light"
         id="path3047" />
    </g>
    <text
       xml:space="preserve"
       style="font-size:40px;font-style:normal;font-weight:normal;line-height:125%;letter-spacing:0px;word-spacing:0px;fill:#000000;fill-opacity:1;stroke:none;font-family:Sans"
       x="372.14285"
       y="135.21713"
       id="text3049"
       sodipodi:linespacing="125%"
       transform="translate(0,800.00218)"><tspan
         sodipodi:role="line"
         id="tspan3051"></tspan></text>
  </g>
</svg>
