<?xml version="1.0" encoding="UTF-8" standalone="no"?>
<!-- Created with Inkscape (http://www.inkscape.org/) -->
<svg id="svg3087" xmlns:rdf="http://www.w3.org/1999/02/22-rdf-syntax-ns#" xmlns="http://www.w3.org/2000/svg" height="252.36" width="744.09" version="1.1" xmlns:cc="http://creativecommons.org/ns#" xmlns:dc="http://purl.org/dc/elements/1.1/">
 <metadata id="metadata3092">
  <rdf:RDF>
   <cc:Work rdf:about="">
    <dc:format>image/svg+xml</dc:format>
    <dc:type rdf:resource="http://purl.org/dc/dcmitype/StillImage"/>
    <dc:title/>
   </cc:Work>
  </rdf:RDF>
 </metadata>
 <g id="layer1" transform="translate(0,-800.00218)">
  <g id="text32" font-size="15px">
   <path id="path2993" fill-rule="nonzero" fill="#231f20" d="m250.58,941.66,16.93,4.276c-3.5489,13.904-9.9338,24.507-19.155,31.808-9.2212,7.3012-20.493,10.952-33.815,10.952-13.788-0.00001-25.002-2.807-33.641-8.4211-8.6393-5.6141-15.213-13.744-19.722-24.391-4.5087-10.646-6.7631-22.078-6.7631-34.295,0-13.322,2.5452-24.943,7.6357-34.863,5.0905-9.9191,12.333-17.453,21.729-22.602,9.3955-5.1485,19.736-7.7229,31.023-7.723,12.799,0.00013,23.562,3.258,32.288,9.7737,8.7264,6.5159,14.806,15.679,18.238,27.489l-16.668,3.927c-2.9671-9.3082-7.2722-16.086-12.915-20.333-5.6433-4.2468-12.741-6.3703-21.293-6.3704-9.832,0.00012-18.049,2.3563-24.652,7.0685-6.6031,4.7124-11.243,11.039-13.919,18.98-2.6762,7.9412-4.0142,16.13-4.0142,24.565-0.00003,10.879,1.5853,20.377,4.756,28.492,3.1706,8.1157,8.1011,14.181,14.792,18.195,6.6903,4.0142,13.933,6.0213,21.729,6.0213,9.4828,0.00001,17.511-2.7343,24.085-8.203,6.5739-5.4686,11.024-13.584,13.352-24.347z"/>
  </g>
  <g id="text36" font-size="15px">
   <path id="path2996" fill-rule="nonzero" fill="#231f20" d="m236.14,935.49,12.542,1.5509c-1.9781,7.3277-5.6419,13.014-10.991,17.06-5.3497,4.0459-12.183,6.0689-20.499,6.0689-10.475,0-18.78-3.2255-24.916-9.6766-6.1364-6.451-9.2045-15.498-9.2045-27.142-0.00001-12.048,3.1019-21.398,9.3057-28.052,6.2038-6.6533,14.251-9.9799,24.141-9.98,9.5754,0.00007,17.398,3.2593,23.466,9.7777,6.0688,6.5185,9.1033,15.689,9.1034,27.512-0.00007,0.71932-0.0225,1.7982-0.0674,3.2368h-53.406c0.44953,7.8671,2.6748,13.891,6.6758,18.072,4.001,4.1808,8.991,6.2712,14.97,6.2712,4.4505,0.00001,8.2492-1.1688,11.396-3.5065,3.1468-2.3376,5.6418-6.0689,7.485-11.194zm-39.853-19.623,39.987,0c-0.53952-6.0239-2.068-10.542-4.5854-13.554-3.8662-4.6753-8.8786-7.0129-15.037-7.013-5.5744,0.00006-10.261,1.8657-14.06,5.5969-3.7987,3.7313-5.9004,8.7213-6.3049,14.97z"/>
  </g>
  <g id="text40" fill-rule="nonzero" font-size="15px" fill="#231f20">
   <path id="path2999" d="m308.46,872.23,5.7714,1.4577c-1.2099,4.7401-3.3865,8.3547-6.53,10.844-3.1436,2.489-6.9862,3.7336-11.528,3.7336-4.7004,0-8.5233-0.95694-11.468-2.8708-2.9452-1.9139-5.1864-4.6856-6.7234-8.315-1.5371-3.6294-2.3056-7.5266-2.3056-11.692-0.00001-4.5417,0.86769-8.5034,2.6031-11.885,1.7354-3.3815,4.2046-5.9499,7.4076-7.7051s6.7283-2.6328,10.576-2.6328c4.3632,0.00005,8.0324,1.1107,11.007,3.332,2.9749,2.2213,5.0475,5.345,6.2177,9.3711l-5.6822,1.3387c-1.0115-3.1732-2.4792-5.4838-4.4029-6.9316-1.9238-1.4478-4.3435-2.1717-7.2589-2.1717-3.3518,0.00004-6.1532,0.80328-8.4042,2.4097-2.2511,1.6065-3.8328,3.7634-4.7451,6.4705-0.91233,2.7072-1.3685,5.4987-1.3685,8.3745-0.00001,3.7088,0.54044,6.9465,1.6214,9.7132,1.0809,2.7667,2.7617,4.8343,5.0426,6.2028,2.2808,1.3685,4.75,2.0527,7.4076,2.0527,3.2328,0,5.9697-0.93215,8.2109-2.7965,2.2411-1.8643,3.7583-4.631,4.5517-8.3001z"/>
   <path id="path3001" d="m318.69,871.72c-0.00001-5.8507,1.6263-10.184,4.8789-13.001,2.7171-2.3403,6.0292-3.5104,9.9364-3.5104,4.3434,0.00003,7.8935,1.423,10.65,4.2691,2.7568,2.8461,4.1352,6.778,4.1352,11.796-0.00003,4.0658-0.6099,7.2639-1.8296,9.5942-1.2198,2.3304-2.9948,4.1402-5.3252,5.4293-2.3304,1.2892-4.874,1.9337-7.6308,1.9337-4.4228-0.00001-7.9977-1.4181-10.725-4.2542-2.727-2.8361-4.0906-6.9217-4.0906-12.257zm5.5037,0c-0.00001,4.046,0.88256,7.0754,2.6477,9.0885s3.9864,3.0196,6.6639,3.0196c2.6576,0,4.869-1.0115,6.6342-3.0345,1.7651-2.023,2.6477-5.107,2.6477-9.2521-0.00003-3.9071-0.88756-6.8672-2.6626-8.8802-1.7751-2.013-3.9815-3.0196-6.6193-3.0196-2.6775,0.00002-4.8988,1.0016-6.6639,3.0047-1.7652,2.0032-2.6477,5.0277-2.6477,9.0736z"/>
   <path id="path3003" d="m375.21,883.62c-1.9833,1.6858-3.8922,2.8758-5.7268,3.57-1.8346,0.69416-3.803,1.0412-5.9053,1.0412-3.4708-0.00001-6.1383-0.84787-8.0026-2.5436s-2.7965-3.8625-2.7965-6.5003c-0.00001-1.547,0.35203-2.9601,1.0561-4.2393,0.70406-1.2792,1.6263-2.3056,2.7667-3.0791,1.1404-0.77347,2.4246-1.3586,3.8526-1.7552,1.0511-0.27765,2.6378-0.5454,4.7599-0.80324,4.3236-0.51564,7.5068-1.1305,9.5496-1.8445,0.0198-0.7338,0.0297-1.1999,0.0297-1.3982-0.00003-2.1816-0.50577-3.7187-1.5172-4.6112-1.3685-1.2098-3.4014-1.8147-6.0987-1.8147-2.5188,0.00002-4.3782,0.44131-5.578,1.3238-1.1999,0.8826-2.0874,2.4444-2.6626,4.6856l-5.2359-0.71399c0.47599-2.2411,1.2594-4.0509,2.3502-5.4293s2.6675-2.4394,4.7302-3.1832c2.0626-0.74371,4.4525-1.1156,7.1696-1.1156,2.6973,0.00003,4.8888,0.31736,6.5746,0.95199,1.6858,0.63468,2.9254,1.433,3.7187,2.3948,0.79329,0.96193,1.3486,2.1767,1.666,3.6443,0.17846,0.91234,0.26771,2.5585,0.26774,4.9384v7.1399c-0.00003,4.9781,0.11401,8.1266,0.34212,9.4455,0.22805,1.3189,0.67925,2.5833,1.3536,3.7931h-5.5929c-0.55535-1.1106-0.91235-2.4097-1.071-3.8972zm-0.44624-11.959c-1.9437,0.79334-4.8591,1.4677-8.7464,2.023-2.2015,0.31735-3.7584,0.67434-4.6707,1.071-0.91233,0.39667-1.6164,0.97679-2.1122,1.7404-0.49583,0.76358-0.74374,1.6114-0.74374,2.5436,0,1.428,0.54045,2.618,1.6214,3.57,1.0809,0.95199,2.6626,1.428,4.745,1.428,2.0626,0,3.8972-0.4512,5.5037-1.3536s2.7865-2.137,3.5402-3.7038c0.57514-1.2098,0.86272-2.9948,0.86274-5.3549z"/>
   <path id="path3005" d="m386.37,878.09,5.2954-0.83299c0.29748,2.1222,1.1255,3.7485,2.4841,4.8789,1.3586,1.1305,3.2576,1.6957,5.697,1.6957,2.4593,0,4.2839-0.50078,5.4739-1.5024s1.785-2.1767,1.785-3.5253c-0.00002-1.2098-0.52559-2.1618-1.5767-2.856-0.73385-0.47598-2.5585-1.0809-5.4739-1.8147-3.927-0.99164-6.649-1.8494-8.1663-2.5733-1.5172-0.72389-2.6676-1.7255-3.451-3.0047-0.78341-1.2792-1.1751-2.6923-1.1751-4.2393,0-1.4081,0.32228-2.7121,0.96686-3.9121,0.64457-1.1999,1.5222-2.1965,2.6328-2.9898,0.83298-0.6148,1.9684-1.1354,3.4063-1.5618,1.4379-0.42638,2.9799-0.63959,4.6261-0.63962,2.4791,0.00003,4.6558,0.35703,6.53,1.071,1.8742,0.71402,3.2576,1.6809,4.1501,2.9006,0.89246,1.2198,1.5073,2.851,1.8445,4.8938l-5.2359,0.71399c-0.23802-1.6263-0.92722-2.8956-2.0676-3.8079s-2.7518-1.3685-4.8343-1.3685c-2.4593,0.00002-4.2145,0.4066-5.2657,1.2197-1.0512,0.81318-1.5767,1.7652-1.5767,2.856-0.00001,0.69418,0.21815,1.3189,0.65449,1.8742,0.43631,0.57518,1.1206,1.0512,2.0527,1.428,0.53548,0.19835,2.1122,0.65451,4.7302,1.3685,3.7881,1.0115,6.4308,1.8395,7.9283,2.4841,1.4974,0.64459,2.6725,1.5817,3.5253,2.8113,0.8528,1.2297,1.2792,2.7568,1.2792,4.5814-0.00003,1.785-0.52065,3.4658-1.5619,5.0426-1.0413,1.5767-2.5436,2.7965-4.5071,3.6592-1.9635,0.86274-4.1848,1.2941-6.6639,1.2941-4.1054-0.00001-7.2341-0.85283-9.386-2.5585-2.1519-1.7056-3.5253-4.2344-4.1203-7.5861z"/>
   <path id="path3007" d="m430.67,882.73,0.77349,4.7302c-1.5073,0.31732-2.856,0.47599-4.0459,0.47599-1.9436,0-3.451-0.30741-4.5219-0.92224-1.071-0.61482-1.8246-1.423-2.261-2.4246-0.43633-1.0016-0.6545-3.1088-0.65449-6.3218v-18.177h-3.927v-4.1649h3.927v-7.8241l5.3252-3.213v11.037h5.3847v4.1649h-5.3847v18.474c-0.00001,1.5272,0.0942,2.5089,0.28262,2.9452,0.18841,0.43633,0.49582,0.78341,0.92224,1.0412,0.4264,0.25783,1.0363,0.38675,1.8296,0.38674,0.59497,0.00001,1.3784-0.0694,2.3502-0.20825z"/>
   <path id="path3009" d="m456.49,883.62c-1.9833,1.6858-3.8923,2.8758-5.7268,3.57-1.8346,0.69416-3.803,1.0412-5.9053,1.0412-3.4708-0.00001-6.1383-0.84787-8.0026-2.5436s-2.7965-3.8625-2.7965-6.5003c0-1.547,0.35203-2.9601,1.0561-4.2393s1.6263-2.3056,2.7667-3.0791c1.1404-0.77347,2.4246-1.3586,3.8526-1.7552,1.0511-0.27765,2.6378-0.5454,4.7599-0.80324,4.3236-0.51564,7.5068-1.1305,9.5496-1.8445,0.0198-0.7338,0.0297-1.1999,0.0298-1.3982-0.00002-2.1816-0.50576-3.7187-1.5172-4.6112-1.3685-1.2098-3.4014-1.8147-6.0987-1.8147-2.5188,0.00002-4.3782,0.44131-5.578,1.3238-1.1999,0.8826-2.0874,2.4444-2.6626,4.6856l-5.2359-0.71399c0.47598-2.2411,1.2594-4.0509,2.3502-5.4293s2.6675-2.4394,4.7302-3.1832c2.0626-0.74371,4.4525-1.1156,7.1696-1.1156,2.6973,0.00003,4.8888,0.31736,6.5747,0.95199,1.6858,0.63468,2.9253,1.433,3.7187,2.3948,0.7933,0.96193,1.3486,2.1767,1.666,3.6443,0.17847,0.91234,0.26772,2.5585,0.26774,4.9384v7.1399c-0.00002,4.9781,0.11401,8.1266,0.34212,9.4455,0.22805,1.3189,0.67926,2.5833,1.3536,3.7931h-5.5929c-0.55535-1.1106-0.91234-2.4097-1.071-3.8972zm-0.44625-11.959c-1.9437,0.79334-4.8591,1.4677-8.7464,2.023-2.2015,0.31735-3.7584,0.67434-4.6707,1.071-0.91233,0.39667-1.6164,0.97679-2.1122,1.7404-0.49584,0.76358-0.74375,1.6114-0.74374,2.5436-0.00001,1.428,0.54044,2.618,1.6214,3.57,1.0809,0.95199,2.6626,1.428,4.745,1.428,2.0626,0,3.8972-0.4512,5.5037-1.3536,1.6064-0.9024,2.7865-2.137,3.5402-3.7038,0.57514-1.2098,0.86272-2.9948,0.86274-5.3549z"/>
   <path id="path3011" d="m469.67,887.52,0-43.613,5.3549,0,0,43.613z"/>
  </g>
  <g id="text44" fill-rule="nonzero" font-size="15px" fill="#231f20">
   <path id="path3014" d="m281.2,941.95,0-40.705,29.432,0,0,4.8036-24.046,0,0,12.467,22.518,0,0,4.7758-22.518,0,0,13.855,24.99,0,0,4.8036z"/>
   <path id="path3016" d="m318.43,941.95,0-29.488,4.4981,0,0,4.1927c2.1658-3.2394,5.2941-4.8591,9.385-4.8591,1.777,0.00003,3.4106,0.31934,4.9008,0.95793,1.4901,0.63866,2.6054,1.4763,3.3458,2.5128,0.74041,1.0366,1.2587,2.2676,1.5549,3.6929,0.18508,0.92556,0.27763,2.5453,0.27766,4.8591v18.131h-4.9979v-17.937c-0.00003-2.0362-0.19439-3.5587-0.5831-4.5676-0.38875-1.0088-1.0783-1.814-2.0686-2.4157-0.99036-0.60158-2.1519-0.90238-3.4847-0.9024-2.1288,0.00002-3.966,0.67567-5.5116,2.0269-1.5457,1.3513-2.3185,3.9151-2.3185,7.6913v16.104z"/>
   <path id="path3018" d="m358.28,941.95-11.218-29.488,5.2756,0,6.3307,17.659c0.68489,1.9066,1.3143,3.8873,1.8881,5.942,0.44425-1.5549,1.0644-3.4245,1.8603-5.6088l6.5528-17.993h5.1368l-11.162,29.488z"/>
   <path id="path3020" d="m378.55,907,0-5.7476,4.9979,0,0,5.7476zm0,34.958,0-29.488,4.9979,0,0,29.488z"/>
   <path id="path3022" d="m391.12,941.95,0-29.488,4.4981,0,0,4.4704c1.1477-2.0917,2.2074-3.4708,3.1792-4.1372,0.97181-0.66636,2.0408-0.99955,3.207-0.99958,1.6845,0.00003,3.3967,0.53684,5.1368,1.6104l-1.7215,4.637c-1.2217-0.7219-2.4434-1.0829-3.6652-1.0829-1.0922,0.00002-2.0732,0.32859-2.9432,0.9857-0.87002,0.65716-1.4901,1.5688-1.8604,2.735-0.55533,1.7771-0.83299,3.7207-0.83298,5.8309v15.438z"/>
   <path id="path3024" d="m408.31,927.21c-0.00001-5.4607,1.5179-9.5053,4.5537-12.134,2.536-2.1842,5.6273-3.2764,9.2739-3.2764,4.0539,0.00003,7.3673,1.3282,9.9403,3.9845s3.8595,6.3261,3.8595,11.009c-0.00003,3.7947-0.56924,6.7796-1.7076,8.9546s-2.7952,3.8642-4.9702,5.0674-4.5491,1.8048-7.122,1.8048c-4.1279,0-7.4645-1.3235-10.01-3.9706-2.5452-2.647-3.8179-6.4603-3.8179-11.44zm5.1368,0c-0.00001,3.7762,0.82373,6.6038,2.4712,8.4826,1.6475,1.8789,3.7207,2.8183,6.2196,2.8183,2.4804,0,4.5444-0.94405,6.1919-2.8322,1.6474-1.8881,2.4712-4.7665,2.4712-8.6353-0.00002-3.6466-0.82838-6.4094-2.4851-8.2882s-3.7161-2.8182-6.178-2.8183c-2.499,0.00003-4.5722,0.93483-6.2196,2.8044-1.6475,1.8696-2.4712,4.6925-2.4712,8.4687z"/>
   <path id="path3026" d="m441.83,941.95,0-29.488,4.4981,0,0,4.1927c2.1658-3.2394,5.2941-4.8591,9.385-4.8591,1.777,0.00003,3.4106,0.31934,4.9008,0.95793,1.4901,0.63866,2.6054,1.4763,3.3458,2.5128,0.74041,1.0366,1.2587,2.2676,1.5549,3.6929,0.18508,0.92556,0.27763,2.5453,0.27766,4.8591v18.131h-4.9979v-17.937c-0.00003-2.0362-0.19439-3.5587-0.5831-4.5676-0.38875-1.0088-1.0783-1.814-2.0686-2.4157-0.99035-0.60158-2.1519-0.90238-3.4847-0.9024-2.1288,0.00002-3.966,0.67567-5.5116,2.0269-1.5457,1.3513-2.3185,3.9151-2.3185,7.6913v16.104z"/>
   <path id="path3028" d="m473.48,941.95,0-29.488,4.4704,0,0,4.1372c0.92553-1.4438,2.1565-2.6054,3.6929-3.4847,1.5364-0.87923,3.2857-1.3189,5.2478-1.3189,2.1843,0.00003,3.9752,0.45354,5.3728,1.3605,1.3976,0.90706,2.3832,2.1751,2.9571,3.804,2.3323-3.443,5.3681-5.1645,9.1073-5.1645,2.9247,0.00003,5.1738,0.80988,6.7472,2.4296s2.3601,4.1141,2.3601,7.483v20.242h-4.9702v-18.576c-0.00004-1.9992-0.16201-3.4384-0.48591-4.3177-0.32398-0.87924-0.9117-1.5873-1.7632-2.1241-0.85154-0.53679-1.8511-0.8052-2.9988-0.80522-2.0732,0.00002-3.7948,0.68955-5.1645,2.0686-1.3698,1.3791-2.0547,3.5865-2.0547,6.6223v17.132h-4.9979v-19.159c-0.00002-2.2213-0.40726-3.8873-1.2217-4.9979-0.8145-1.1106-2.1473-1.666-3.9984-1.666-1.4068,0.00002-2.7072,0.37024-3.9012,1.1106-1.194,0.74046-2.0593,1.8233-2.5962,3.2487-0.53682,1.4254-0.80523,3.4801-0.80522,6.1641v15.299z"/>
   <path id="path3030" d="m541.09,932.46,5.1645,0.63862c-0.81451,3.0173-2.3231,5.3589-4.5259,7.0249s-5.0165,2.499-8.441,2.499c-4.313,0-7.7329-1.3282-10.26-3.9845-2.5267-2.6563-3.7901-6.3816-3.7901-11.176,0-4.9609,1.2772-8.8112,3.8318-11.551,2.5545-2.7396,5.8679-4.1094,9.9403-4.1094,3.9428,0.00003,7.1637,1.3421,9.6627,4.0261,2.4989,2.6841,3.7484,6.4603,3.7484,11.329-0.00003,0.29618-0.009,0.74045-0.0278,1.3328h-21.991c0.18511,3.2394,1.1014,5.7199,2.7489,7.4414,1.6474,1.7215,3.7022,2.5823,6.1641,2.5823,1.8326,0,3.3967-0.48128,4.6925-1.4438,1.2957-0.96256,2.3231-2.499,3.0821-4.6092zm-16.41-8.08,16.465,0c-0.22215-2.4804-0.85152-4.3408-1.8881-5.581-1.592-1.9251-3.6559-2.8877-6.1919-2.8877-2.2954,0.00002-4.2251,0.76822-5.7893,2.3046s-2.4296,3.5911-2.5962,6.1641z"/>
   <path id="path3032" d="m552.56,941.95,0-29.488,4.4981,0,0,4.1927c2.1658-3.2394,5.2941-4.8591,9.385-4.8591,1.777,0.00003,3.4106,0.31934,4.9008,0.95793,1.4901,0.63866,2.6054,1.4763,3.3458,2.5128,0.74041,1.0366,1.2587,2.2676,1.5549,3.6929,0.18508,0.92556,0.27763,2.5453,0.27766,4.8591v18.131h-4.9979v-17.937c-0.00003-2.0362-0.19439-3.5587-0.5831-4.5676-0.38875-1.0088-1.0783-1.814-2.0686-2.4157-0.99035-0.60158-2.1519-0.90238-3.4847-0.9024-2.1288,0.00002-3.966,0.67567-5.5116,2.0269-1.5457,1.3513-2.3185,3.9151-2.3185,7.6913v16.104z"/>
   <path id="path3034" d="m595.12,937.48,0.72193,4.4148c-1.4068,0.29617-2.6656,0.44426-3.7762,0.44426-1.8141,0-3.2209-0.28692-4.2205-0.86076-0.9996-0.57383-1.703-1.3282-2.1102-2.263-0.40725-0.93479-0.61087-2.9016-0.61086-5.9003v-16.965h-3.6652v-3.8873h3.6652v-7.3025l4.9702-2.9988v10.301h5.0257v3.8873h-5.0257v17.243c-0.00001,1.4253,0.0879,2.3416,0.26378,2.7489,0.17584,0.40724,0.46276,0.73118,0.86075,0.97182,0.39797,0.24065,0.96718,0.36097,1.7076,0.36096,0.55531,0.00001,1.2865-0.0648,2.1935-0.19436z"/>
   <path id="path3036" d="m619.22,938.32c-1.8511,1.5734-3.6328,2.6841-5.345,3.332-1.7123,0.64788-3.5495,0.97182-5.5116,0.97182-3.2394,0-5.7291-0.79134-7.4691-2.374s-2.61-3.605-2.61-6.0669c0-1.4438,0.32856-2.7627,0.9857-3.9567,0.65713-1.1939,1.5179-2.1519,2.5823-2.8738,1.0644-0.72191,2.2629-1.268,3.5957-1.6382,0.98107-0.25914,2.4619-0.50903,4.4426-0.74969,4.0354-0.48127,7.0063-1.0551,8.913-1.7215,0.0185-0.68488,0.0277-1.1199,0.0278-1.305-0.00003-2.0362-0.47205-3.4708-1.4161-4.3038-1.2773-1.1291-3.1746-1.6937-5.6921-1.6938-2.3509,0.00003-4.0863,0.4119-5.2062,1.2356-1.1199,0.82376-1.9483,2.2815-2.4851,4.3732l-4.8869-0.66639c0.44426-2.0917,1.1754-3.7808,2.1935-5.0673s2.4897-2.2768,4.4148-2.971c1.9251-0.69413,4.1557-1.0412,6.6917-1.0412,2.5175,0.00003,4.5629,0.2962,6.1364,0.88852,1.5734,0.59237,2.7303,1.3374,3.4708,2.2352,0.7404,0.89781,1.2587,2.0316,1.5549,3.4014,0.16657,0.85153,0.24987,2.3879,0.24989,4.6092v6.6639c-0.00002,4.6462,0.10641,7.5848,0.31932,8.8158,0.21284,1.231,0.63397,2.411,1.2634,3.5402h-5.2201c-0.51833-1.0366-0.85152-2.2491-0.99959-3.6374zm-0.41649-11.162c-1.8141,0.74045-4.5352,1.3698-8.1633,1.8881-2.0547,0.29619-3.5078,0.62939-4.3593,0.99959-0.85151,0.37023-1.5086,0.91167-1.9714,1.6243-0.46278,0.71268-0.69416,1.504-0.69415,2.374-0.00001,1.3328,0.50441,2.4434,1.5133,3.332,1.0088,0.88853,2.4851,1.3328,4.4287,1.3328,1.9251,0,3.6374-0.42112,5.1368-1.2634,1.4994-0.84224,2.6008-1.9945,3.3042-3.4569,0.53679-1.1292,0.8052-2.7951,0.80522-4.9979z"/>
   <path id="path3038" d="m631.53,941.95,0-40.705,4.9979,0,0,40.705z"/>
  </g>
  <g id="text48" fill-rule="nonzero" font-size="15px" fill="#231f20">
   <path id="path3041" d="m308.46,981.8,5.7714,1.4577c-1.2099,4.7401-3.3865,8.3547-6.53,10.844-3.1436,2.489-6.9862,3.7336-11.528,3.7336-4.7004,0-8.5233-0.95695-11.468-2.8708-2.9452-1.9139-5.1864-4.6856-6.7234-8.315-1.5371-3.6294-2.3056-7.5266-2.3056-11.692-0.00001-4.5417,0.86769-8.5034,2.6031-11.885,1.7354-3.3815,4.2046-5.9499,7.4076-7.7051s6.7283-2.6328,10.576-2.6328c4.3632,0.00004,8.0324,1.1107,11.007,3.332,2.9749,2.2213,5.0475,5.345,6.2177,9.3711l-5.6822,1.3387c-1.0115-3.1733-2.4792-5.4838-4.4029-6.9316-1.9238-1.4478-4.3435-2.1717-7.2589-2.1717-3.3518,0.00004-6.1532,0.80327-8.4042,2.4097-2.2511,1.6065-3.8328,3.7634-4.7451,6.4705-0.91233,2.7072-1.3685,5.4987-1.3685,8.3745-0.00001,3.7088,0.54044,6.9465,1.6214,9.7132,1.0809,2.7667,2.7617,4.8343,5.0426,6.2028,2.2808,1.3685,4.75,2.0527,7.4076,2.0527,3.2328,0,5.9697-0.93215,8.2109-2.7965,2.2411-1.8643,3.7583-4.631,4.5517-8.3001z"/>
   <path id="path3043" d="m318.69,981.3c-0.00001-5.8507,1.6263-10.184,4.8789-13.001,2.7171-2.3403,6.0292-3.5104,9.9364-3.5104,4.3434,0.00004,7.8935,1.4231,10.65,4.2691,2.7568,2.8461,4.1352,6.778,4.1352,11.796-0.00003,4.0658-0.6099,7.2639-1.8296,9.5942-1.2198,2.3304-2.9948,4.1402-5.3252,5.4293-2.3304,1.2892-4.874,1.9337-7.6308,1.9337-4.4228,0-7.9977-1.4181-10.725-4.2542-2.727-2.8361-4.0906-6.9217-4.0906-12.257zm5.5037,0c-0.00001,4.046,0.88256,7.0754,2.6477,9.0885s3.9864,3.0196,6.6639,3.0196c2.6576,0.00001,4.869-1.0115,6.6342-3.0344,1.7651-2.023,2.6477-5.107,2.6477-9.2521-0.00003-3.9071-0.88756-6.8672-2.6626-8.8802-1.7751-2.013-3.9815-3.0196-6.6193-3.0196-2.6775,0.00003-4.8988,1.0016-6.6639,3.0047-1.7652,2.0032-2.6477,5.0277-2.6477,9.0736z"/>
   <path id="path3045" d="m354.54,997.09,0-31.594,4.8194,0,0,4.7897c1.2296-2.2411,2.3651-3.7187,3.4063-4.4327,1.0412-0.71396,2.1866-1.071,3.4361-1.071,1.8048,0.00004,3.6394,0.57519,5.5037,1.7255l-1.8445,4.9682c-1.309-0.77346-2.618-1.1602-3.9269-1.1602-1.1702,0.00003-2.2213,0.35207-3.1535,1.0561-0.93216,0.7041-1.5966,1.6809-1.9932,2.9303-0.595,1.904-0.8925,3.9865-0.89249,6.2474v16.541z"/>
   <path id="path3047" d="m374.95,1009.2,0-43.702,4.8789,0,0,4.1054c1.1503-1.6064,2.4494-2.8113,3.8972-3.6146,1.4478-0.8032,3.203-1.2048,5.2657-1.2049,2.6973,0.00004,5.0772,0.69419,7.1399,2.0825,2.0626,1.3884,3.6195,3.3469,4.6707,5.8755,1.0511,2.5287,1.5767,5.3004,1.5767,8.315-0.00003,3.2328-0.58014,6.1433-1.7404,8.7315s-2.8461,4.5715-5.0574,5.9499c-2.2114,1.3784-4.5368,2.0676-6.9763,2.0676-1.785,0-3.3865-0.37683-4.8046-1.1305-1.4181-0.75366-2.5833-1.7056-3.4956-2.856v15.381zm4.8492-27.727c-0.00001,4.0658,0.82306,7.0705,2.4692,9.0141s3.6394,2.9155,5.9797,2.9155c2.3799,0.00001,4.4178-1.0065,6.1135-3.0196,1.6957-2.013,2.5436-5.1318,2.5436-9.3562-0.00002-4.0261-0.82805-7.0407-2.4841-9.0439-1.6561-2.0031-3.6344-3.0047-5.935-3.0047-2.2808,0.00003-4.2988,1.0661-6.054,3.1981-1.7552,2.1321-2.6328,5.231-2.6328,9.2967z"/>
  </g>
  <text id="text3049" style="letter-spacing:0px;word-spacing:0px;" font-weight="normal" xml:space="preserve" transform="translate(0,800.00218)" font-size="40px" font-style="normal" y="135.21713" x="372.14285" font-family="Sans" line-height="125%" fill="#000000"><tspan id="tspan3051"/></text>
 </g>
</svg>
